<svg xmlns="http://www.w3.org/2000/svg" xmlns:xlink="http://www.w3.org/1999/xlink" preserveAspectRatio="xMidYMid" width="630" height="160" viewBox="0 0 630 160">
  <defs>
    <style>
      .cls-1 {
        fill: #c2202c;
      }

      .cls-1, .cls-2 {
        filter: url(#color-overlay-1);
      }

      .cls-1, .cls-2, .cls-3, .cls-4 {
        fill-rule: evenodd;
      }

      .cls-2 {
        fill: #c2202d;
      }

      .cls-3 {
        fill: #1c5aa8;
      }

      .cls-4 {
        fill: #c2212c;
      }
    </style>

    <filter id="color-overlay-1" filterUnits="userSpaceOnUse">
      <feFlood flood-color="#1c5aa8"/>
      <feComposite operator="in" in2="SourceGraphic"/>
      <feBlend in2="SourceGraphic" result="solidFill"/>
    </filter>
  </defs>
  <g>
    <g style="fill: #c2202c; filter: url(#color-overlay-1)">
      <path d="M-0.000,-0.000 C-0.000,-0.000 6.232,1.529 16.546,4.323 C58.758,15.757 94.296,79.620 139.000,91.000 C177.684,100.848 217.099,63.245 223.000,58.000 C224.298,57.225 227.000,61.000 227.000,61.000 C227.000,61.000 209.008,78.939 189.000,92.000 C173.625,102.037 156.500,105.500 152.000,106.000 C147.500,106.500 118.977,108.218 70.925,60.191 C32.391,21.676 -0.000,20.000 -0.000,20.000 L-0.000,-0.000 Z" id="path-1" style="filter: none; fill: inherit" class="cls-1"/>
    </g>
    <use xlink:href="#path-1" style="filter: none; fill: none"/>
    <g style="fill: #c2202d; filter: url(#color-overlay-1)">
      <path d="M269.000,88.000 C238.534,65.502 202.772,23.131 167.000,14.027 C128.316,4.182 88.901,41.774 83.000,47.017 C81.702,47.792 79.000,44.018 79.000,44.018 C79.000,44.018 96.992,26.084 117.000,13.027 C132.375,2.994 148.333,0.031 156.000,0.031 C163.667,0.031 187.023,-3.186 235.075,44.827 C242.357,52.103 249.420,58.723 256.000,63.000 C256.445,69.930 260.478,78.280 269.000,88.000 Z" id="path-2" style="filter: none; fill: inherit" class="cls-2"/>
    </g>
    <use xlink:href="#path-2" style="filter: none; fill: none"/>
    <path d="M546.486,97.320 L588.207,97.320 L588.207,103.217 L545.530,103.217 C542.587,103.217 540.293,102.620 538.650,101.427 C537.006,100.233 536.185,98.583 536.185,96.477 C536.185,95.494 536.430,94.511 536.921,93.528 C537.411,92.545 538.417,91.118 539.938,89.246 L578.715,44.383 C579.009,44.009 579.230,43.670 579.377,43.365 C579.524,43.061 579.598,42.792 579.598,42.557 C579.598,42.043 579.352,41.621 578.862,41.293 C578.371,40.967 577.709,40.802 576.875,40.802 L539.791,40.802 L539.791,35.326 L575.992,35.326 C579.475,35.326 582.050,35.852 583.718,36.905 C585.385,37.959 586.220,39.538 586.220,41.645 C586.220,42.768 585.962,43.891 585.447,45.015 C584.932,46.138 584.134,47.331 583.056,48.595 L544.500,93.177 C544.106,93.599 543.812,94.020 543.617,94.441 C543.420,94.862 543.322,95.238 543.322,95.564 C543.322,96.126 543.591,96.559 544.132,96.863 C544.671,97.168 545.456,97.320 546.486,97.320 ZM519.335,20.512 C518.158,20.512 517.139,20.091 516.282,19.248 C515.423,18.406 514.994,17.400 514.994,16.229 C514.994,15.060 515.410,14.077 516.245,13.280 C517.078,12.485 518.108,12.087 519.335,12.087 C520.610,12.087 521.690,12.485 522.573,13.280 C523.456,14.077 523.897,15.060 523.897,16.229 C523.897,17.400 523.456,18.406 522.573,19.248 C521.690,20.091 520.610,20.512 519.335,20.512 ZM478.424,103.077 C477.198,104.106 475.652,104.621 473.789,104.621 C471.876,104.621 470.305,104.106 469.080,103.077 C467.853,102.048 466.773,100.268 465.842,97.741 L441.413,35.326 L448.036,35.326 L471.140,94.862 C471.532,95.986 471.924,96.793 472.317,97.285 C472.709,97.776 473.151,98.022 473.642,98.022 C474.181,98.022 474.683,97.753 475.150,97.214 C475.616,96.677 476.020,95.915 476.364,94.933 L499.468,35.326 L506.091,35.326 L481.662,97.741 C480.729,100.268 479.650,102.048 478.424,103.077 ZM425.593,22.407 C423.434,22.407 421.583,21.659 420.038,20.161 C418.493,18.663 417.720,16.861 417.720,14.755 C417.720,12.696 418.480,10.941 420.001,9.489 C421.521,8.039 423.386,7.313 425.593,7.313 C427.801,7.313 429.652,8.027 431.149,9.454 C432.645,10.882 433.393,12.649 433.393,14.755 C433.393,16.908 432.645,18.722 431.149,20.196 C429.652,21.670 427.801,22.407 425.593,22.407 ZM395.867,93.458 C392.629,96.923 388.754,99.601 384.241,101.497 C379.727,103.393 375.018,104.340 370.114,104.340 C366.532,104.340 363.111,103.954 359.849,103.182 C356.586,102.410 353.484,101.228 350.541,99.637 L350.541,86.367 C353.484,88.521 356.476,90.112 359.518,91.141 C362.559,92.171 365.649,92.686 368.789,92.686 C375.706,92.686 381.396,90.416 385.860,85.876 C390.323,81.336 392.556,75.509 392.556,68.394 C392.556,61.467 390.372,55.780 386.007,51.333 C381.640,46.887 376.048,44.663 369.231,44.663 C362.412,44.663 356.869,46.899 352.601,51.368 C348.334,55.839 346.200,61.678 346.200,68.885 L346.200,133.828 L333.176,133.828 L333.176,74.291 C333.176,68.441 333.482,63.900 334.096,60.671 C334.709,57.441 335.726,54.470 337.150,51.755 C340.141,45.904 344.519,41.329 350.284,38.029 C356.047,34.729 362.461,33.079 369.525,33.079 C380.022,33.079 388.680,36.438 395.499,43.154 C402.317,49.871 405.727,58.378 405.727,68.675 C405.727,73.356 404.880,77.826 403.188,82.084 C401.496,86.344 399.055,90.135 395.867,93.458 ZM294.841,101.462 C288.905,100.293 283.925,98.537 279.904,96.196 C271.466,91.282 265.041,85.139 260.626,77.767 C256.211,70.395 254.003,62.099 254.003,52.878 C254.003,43.705 256.211,35.443 260.626,28.094 C265.041,20.747 271.466,14.639 279.904,9.770 C283.925,7.430 288.905,5.663 294.841,4.469 C300.775,3.276 307.644,2.679 315.443,2.679 L319.490,2.679 L319.490,14.614 C318.902,14.568 318.288,14.533 317.651,14.509 C317.013,14.486 316.080,14.474 314.855,14.474 C301.806,14.474 291.480,17.061 283.877,22.232 C276.273,27.404 271.368,35.139 269.161,45.436 L319.490,45.436 L319.490,57.371 L268.425,57.371 C270.191,68.511 274.924,76.924 282.626,82.611 C290.327,88.298 300.874,91.141 314.266,91.141 C315.688,91.141 316.768,91.130 317.504,91.106 C318.239,91.083 318.902,91.048 319.490,91.001 L319.490,103.217 L315.443,103.217 C307.644,103.217 300.775,102.632 294.841,101.462 ZM432.069,103.217 L419.118,103.217 L419.118,34.343 L432.069,34.343 L432.069,103.217 ZM522.499,103.217 L516.318,103.217 L516.318,35.326 L522.499,35.326 L522.499,103.217 Z" class="cls-3"/>
    <path d="M592.227,158.835 C596.149,158.298 599.811,157.492 603.213,156.418 C606.614,155.344 609.699,154.025 612.466,152.463 C615.233,150.900 617.601,149.110 619.571,147.092 C621.540,145.073 623.062,142.835 624.136,140.378 C625.210,137.920 625.747,135.259 625.747,132.395 C625.747,126.340 623.330,121.441 618.496,117.697 C613.662,113.954 606.492,111.740 596.988,111.057 L599.331,103.098 L626.040,103.781 L629.751,92.355 L629.605,91.965 C624.949,92.095 619.742,92.160 613.980,92.160 C606.623,92.160 600.894,92.095 596.792,91.965 L588.540,121.506 L588.785,121.848 C603.433,122.336 610.757,127.252 610.757,136.594 C610.757,139.133 610.065,141.509 608.682,143.723 C607.298,145.936 605.296,147.881 602.676,149.558 C600.055,151.234 596.866,152.593 593.106,153.635 C589.346,154.676 585.106,155.278 580.386,155.441 L579.898,159.641 C584.195,159.641 588.304,159.372 592.227,158.835 Z" class="cls-4"/>
  </g>
</svg>
