<svg xmlns="http://www.w3.org/2000/svg" xmlns:xlink="http://www.w3.org/1999/xlink" preserveAspectRatio="xMidYMid" width="184" height="108" viewBox="0 0 184 108">
  <defs>
    <style>
      .cls-1 {
        fill: #1d5aa9;
      }

      .cls-1, .cls-2 {
        fill-rule: evenodd;
      }

      .cls-2 {
        fill: #1c5aa8;
      }
    </style>
  </defs>
  <g>
    <path d="M2.000,92.000 C40.684,101.848 80.099,64.245 86.000,59.000 C87.298,58.225 90.000,62.000 90.000,62.000 C90.000,62.000 72.008,79.939 52.000,93.000 C36.625,103.037 19.500,106.500 15.000,107.000 " class="cls-1"/>
    <path d="M19.000,1.031 C26.667,1.031 50.023,-2.186 98.075,45.827 C105.357,53.103 112.420,59.723 119.000,64.000 C119.445,70.930 123.478,79.280 132.000,89.000 C101.534,66.502 65.772,24.131 30.000,15.027 " class="cls-1"/>
    <path d="M182.490,3.679 L178.443,3.679 C170.644,3.679 163.775,4.276 157.841,5.469 C151.905,6.663 146.925,8.430 142.904,10.770 C134.466,15.639 128.041,21.747 123.626,29.094 C119.211,36.443 117.003,44.705 117.003,53.878 C117.003,63.099 119.211,71.395 123.626,78.767 C128.041,86.139 134.466,92.282 142.904,97.196 C146.925,99.537 151.905,101.293 157.841,102.462 C163.775,103.632 170.644,104.217 178.443,104.217 L182.490,104.217 L182.490,92.001 C181.902,92.048 181.239,92.083 180.504,92.106 C179.768,92.130 178.688,92.141 177.266,92.141 C163.874,92.141 153.327,89.298 145.626,83.611 C137.924,77.924 133.191,69.511 131.425,58.371 L182.490,58.371 L182.490,46.436 L132.161,46.436 C134.368,36.139 139.273,28.404 146.877,23.232 C154.480,18.061 164.806,15.474 177.855,15.474 C179.080,15.474 180.013,15.486 180.651,15.509 C181.288,15.533 181.902,15.568 182.490,15.614 L182.490,3.679 Z" class="cls-2"/>
  </g>
</svg>
