<svg xmlns="http://www.w3.org/2000/svg" xmlns:xlink="http://www.w3.org/1999/xlink" preserveAspectRatio="xMidYMid" width="322" height="108" viewBox="0 0 322 108">
  <defs>
    <style>
      .cls-1 {
        fill: #1c5aa8;
      }

      .cls-1, .cls-2, .cls-3 {
        fill-rule: evenodd;
      }

      .cls-2 {
        fill: #1c5aa8;
      }

      .cls-3 {
        fill: #1c5aa8;
      }
    </style>
  </defs>
  <g>
    <g style="fill: #1c5aa8;">
      <path d="M1.000,1.000 C1.000,1.000 7.232,2.529 17.546,5.323 C59.758,16.757 95.296,80.620 140.000,92.000 C178.684,101.848 218.099,64.245 224.000,59.000 C225.298,58.225 228.000,62.000 228.000,62.000 C228.000,62.000 210.008,79.939 190.000,93.000 C174.625,103.037 157.500,106.500 153.000,107.000 C148.500,107.500 119.977,109.218 71.925,61.191 C33.391,22.676 1.000,21.000 1.000,21.000 L1.000,1.000 Z" id="path-1" style="fill: inherit" class="cls-1"/>
    </g>
    <use xlink:href="#path-1" style=" fill: none"/>
    <g style="fill: #1c5aa8; ">
      <path d="M270.000,89.000 C239.534,66.502 203.772,24.131 168.000,15.027 C129.316,5.182 89.901,42.774 84.000,48.017 C82.702,48.792 80.000,45.018 80.000,45.018 C80.000,45.018 97.992,27.084 118.000,14.027 C133.375,3.994 149.333,1.031 157.000,1.031 C164.667,1.031 188.023,-2.186 236.075,45.827 C243.357,53.103 250.420,59.723 257.000,64.000 C257.445,70.930 261.478,79.280 270.000,89.000 Z" id="path-2" style="fill: inherit" class="cls-2"/>
    </g>
    <use xlink:href="#path-2" style=" fill: none"/>
    <path d="M320.490,3.679 L316.443,3.679 C308.644,3.679 301.775,4.276 295.841,5.469 C289.905,6.663 284.925,8.430 280.904,10.770 C272.466,15.639 266.041,21.747 261.626,29.094 C257.211,36.443 255.003,44.705 255.003,53.878 C255.003,63.099 257.211,71.395 261.626,78.767 C266.041,86.139 272.466,92.282 280.904,97.196 C284.925,99.537 289.905,101.293 295.841,102.462 C301.775,103.632 308.644,104.217 316.443,104.217 L320.490,104.217 L320.490,92.001 C319.902,92.048 319.239,92.083 318.504,92.106 C317.768,92.130 316.688,92.141 315.266,92.141 C301.874,92.141 291.327,89.298 283.626,83.611 C275.924,77.924 271.191,69.511 269.425,58.371 L320.490,58.371 L320.490,46.436 L270.161,46.436 C272.368,36.139 277.273,28.404 284.877,23.232 C292.480,18.061 302.806,15.474 315.855,15.474 C317.080,15.474 318.013,15.486 318.651,15.509 C319.288,15.533 319.902,15.568 320.490,15.614 L320.490,3.679 Z" class="cls-3"/>
  </g>
</svg>
